# xmcd
#
# Track frame offsets: 
#        150
#        13153
#        32985
#        47515
#        66323
#        85385
#        99293
#        115468
#        132503
#        149618
#        168893
#        182758
#        204888
#        220915
#        234960
#        253145
#        268968
#        285243
#        300023
#        315623
#
# Disc length: 4372 seconds
#
# Revision: 1
# Processed by: cddbd v1.5.2PL0 Copyright (c) Steve Scherf et al.
# Submitted via: ExactAudioCopy v0.99pb5
#
DISCID=1e111214
DTITLE=Ilan Chester - Lo Mejor de Ilan Chester
DYEAR=1991
DGENRE=Latin
TTITLE0=Canto al Avila
TTITLE1=Amistad
TTITLE2=Solo Faltas Tu
TTITLE3=Para Siempre
TTITLE4=Un Querer Como el Tuyo
TTITLE5=Eres Una en Un Millon
TTITLE6=Marea de la mar
TTITLE7=El Destino
TTITLE8=A Pasarla Bien
TTITLE9=Ya Te Digo Que Si
TTITLE10=Es Verdad
TTITLE11=Vida Rural
TTITLE12=Maquina
TTITLE13=Por Alguien Como Tu
TTITLE14=Contigo
TTITLE15=Que Paso
TTITLE16=Lucha Por la Economia
TTITLE17=Abran Paso
TTITLE18=Daniela
TTITLE19=Soledad
EXTD=
EXTT0=
EXTT1=
EXTT2=
EXTT3=
EXTT4=
EXTT5=
EXTT6=
EXTT7=
EXTT8=
EXTT9=
EXTT10=
EXTT11=
EXTT12=
EXTT13=
EXTT14=
EXTT15=
EXTT16=
EXTT17=
EXTT18=
EXTT19=
PLAYORDER=
